# xmcd
# 
# Track frame offsets:
#     150
#     15372
#     29747
#     43217
#     57214
#     71304
#     88525
#     101374
#     116493
#     128909
#     146577
#     161951
#     176122
# 
# Disc length: 2581
# 
# Revision: 0
# Processed by: cddbd v1.5.2PL0 Copyright (c) Steve Scherf et al.
# Submitted via: fre:ac v1.0.17
# 
DISCID=b10a130d
DTITLE=Charley Pride - Choices
DYEAR=2011
DGENRE=Country
TTITLE0=America The Great 
TTITLE1=Except For You
TTITLE2=Hickory Hollow Times and County News
TTITLE3=The Choices She Made 
TTITLE4=The Bottom Line 
TTITLE5=This Bed's Not Big Enough 
TTITLE6=I Miss My Home 
TTITLE7=Maybe Love Will Save The Day 
TTITLE8=Cajun Party Time
TTITLE9=Guntersville Gazette
TTITLE10=You Touched My Life 
TTITLE11=You Can't Sit Still 
TTITLE12=Resting Place
EXTD=
EXTT0=
EXTT1=
EXTT2=
EXTT3=
EXTT4=
EXTT5=
EXTT6=
EXTT7=
EXTT8=
EXTT9=
EXTT10=
EXTT11=
EXTT12=
PLAYORDER=
